<mxfile host="app.diagrams.net" modified="2020-12-08T03:15:51.311Z" agent="5.0 (Windows NT 10.0; Win64; x64) AppleWebKit/537.36 (KHTML, like Gecko) Chrome/85.0.4183.121 Safari/537.36" etag="ro149JaJDuWRiZkacOzQ" version="13.11.0" type="github">
  <diagram id="pPouhkskX2wK9mQRZ3bs" name="Page-1">
    <mxGraphModel dx="1422" dy="745" grid="1" gridSize="10" guides="1" tooltips="1" connect="1" arrows="1" fold="1" page="1" pageScale="1" pageWidth="827" pageHeight="1169" math="0" shadow="0">
      <root>
        <mxCell id="0" />
        <mxCell id="1" parent="0" />
        <mxCell id="tjXwmgka2W4diix3VgqB-1" value="MySQL（从）" style="shape=cylinder3;whiteSpace=wrap;html=1;boundedLbl=1;backgroundOutline=1;size=15;fillColor=#dae8fc;strokeColor=#6c8ebf;" parent="1" vertex="1">
          <mxGeometry x="580" y="180" width="60" height="80" as="geometry" />
        </mxCell>
        <mxCell id="tjXwmgka2W4diix3VgqB-7" style="edgeStyle=orthogonalEdgeStyle;rounded=0;orthogonalLoop=1;jettySize=auto;html=1;exitX=0;exitY=0;exitDx=0;exitDy=52.5;exitPerimeter=0;" parent="1" source="tjXwmgka2W4diix3VgqB-2" edge="1">
          <mxGeometry relative="1" as="geometry">
            <mxPoint x="450" y="320" as="targetPoint" />
            <Array as="points">
              <mxPoint x="510" y="433" />
              <mxPoint x="510" y="320" />
            </Array>
          </mxGeometry>
        </mxCell>
        <mxCell id="tjXwmgka2W4diix3VgqB-10" value="实时同步" style="edgeLabel;html=1;align=center;verticalAlign=middle;resizable=0;points=[];" parent="tjXwmgka2W4diix3VgqB-7" vertex="1" connectable="0">
          <mxGeometry x="-0.021" y="-1" relative="1" as="geometry">
            <mxPoint as="offset" />
          </mxGeometry>
        </mxCell>
        <mxCell id="tjXwmgka2W4diix3VgqB-2" value="&lt;span&gt;MySQL（从）&lt;/span&gt;" style="shape=cylinder3;whiteSpace=wrap;html=1;boundedLbl=1;backgroundOutline=1;size=15;fillColor=#dae8fc;strokeColor=#6c8ebf;" parent="1" vertex="1">
          <mxGeometry x="600" y="380" width="60" height="80" as="geometry" />
        </mxCell>
        <mxCell id="tjXwmgka2W4diix3VgqB-6" style="edgeStyle=orthogonalEdgeStyle;rounded=0;orthogonalLoop=1;jettySize=auto;html=1;entryX=0;entryY=0.5;entryDx=0;entryDy=0;entryPerimeter=0;" parent="1" source="tjXwmgka2W4diix3VgqB-3" target="tjXwmgka2W4diix3VgqB-1" edge="1">
          <mxGeometry relative="1" as="geometry" />
        </mxCell>
        <mxCell id="tjXwmgka2W4diix3VgqB-11" value="实时同步" style="edgeLabel;html=1;align=center;verticalAlign=middle;resizable=0;points=[];" parent="tjXwmgka2W4diix3VgqB-6" vertex="1" connectable="0">
          <mxGeometry x="0.1949" y="2" relative="1" as="geometry">
            <mxPoint as="offset" />
          </mxGeometry>
        </mxCell>
        <mxCell id="tjXwmgka2W4diix3VgqB-8" style="edgeStyle=orthogonalEdgeStyle;rounded=0;orthogonalLoop=1;jettySize=auto;html=1;entryX=1;entryY=0.5;entryDx=0;entryDy=0;" parent="1" source="tjXwmgka2W4diix3VgqB-3" target="tjXwmgka2W4diix3VgqB-5" edge="1">
          <mxGeometry relative="1" as="geometry" />
        </mxCell>
        <mxCell id="tjXwmgka2W4diix3VgqB-3" value="MySQL&lt;br&gt;(主 )" style="shape=cylinder3;whiteSpace=wrap;html=1;boundedLbl=1;backgroundOutline=1;size=15;fillColor=#1ba1e2;strokeColor=#006EAF;fontColor=#ffffff;" parent="1" vertex="1">
          <mxGeometry x="384" y="280" width="60" height="80" as="geometry" />
        </mxCell>
        <mxCell id="tjXwmgka2W4diix3VgqB-4" value="Redis" style="shape=cylinder3;whiteSpace=wrap;html=1;boundedLbl=1;backgroundOutline=1;size=15;fillColor=#d80073;strokeColor=#A50040;fontColor=#ffffff;" parent="1" vertex="1">
          <mxGeometry x="370" y="80" width="60" height="80" as="geometry" />
        </mxCell>
        <mxCell id="tjXwmgka2W4diix3VgqB-9" style="edgeStyle=orthogonalEdgeStyle;rounded=0;orthogonalLoop=1;jettySize=auto;html=1;entryX=0;entryY=0.5;entryDx=0;entryDy=0;entryPerimeter=0;" parent="1" source="tjXwmgka2W4diix3VgqB-5" target="tjXwmgka2W4diix3VgqB-4" edge="1">
          <mxGeometry relative="1" as="geometry" />
        </mxCell>
        <mxCell id="tjXwmgka2W4diix3VgqB-5" value="专业培训平台" style="rounded=1;whiteSpace=wrap;html=1;fillColor=#fa6800;strokeColor=#C73500;fontColor=#ffffff;" parent="1" vertex="1">
          <mxGeometry x="40" y="290" width="120" height="60" as="geometry" />
        </mxCell>
      </root>
    </mxGraphModel>
  </diagram>
</mxfile>
